<mxfile host="app.diagrams.net" modified="2022-01-14T22:00:43.472Z" agent="5.0 (Macintosh)" etag="1CxbWiJZoFUcC9jA9uyW" version="15.4.3" type="github">
  <diagram id="Y3t_I-Fg4BXgAn7wGaBs" name="Page-1">
    <mxGraphModel dx="1426" dy="795" grid="1" gridSize="10" guides="1" tooltips="1" connect="1" arrows="1" fold="1" page="1" pageScale="1" pageWidth="850" pageHeight="1100" math="0" shadow="0">
      <root>
        <mxCell id="0" />
        <mxCell id="1" parent="0" />
        <mxCell id="MaUqBs58RdpPaciWTK3p-1" value="&lt;div&gt;localhost:9990&lt;/div&gt;" style="whiteSpace=wrap;html=1;aspect=fixed;" vertex="1" parent="1">
          <mxGeometry x="520" y="160" width="80" height="80" as="geometry" />
        </mxCell>
        <mxCell id="MaUqBs58RdpPaciWTK3p-2" value="&lt;div&gt;localhost:9991&lt;/div&gt;" style="whiteSpace=wrap;html=1;aspect=fixed;" vertex="1" parent="1">
          <mxGeometry x="330" y="160" width="80" height="80" as="geometry" />
        </mxCell>
        <mxCell id="MaUqBs58RdpPaciWTK3p-4" value="" style="shape=flexArrow;endArrow=classic;html=1;rounded=0;edgeStyle=orthogonalEdgeStyle;width=6;endSize=7.33;entryX=0;entryY=0.5;entryDx=0;entryDy=0;exitX=1;exitY=0.5;exitDx=0;exitDy=0;" edge="1" parent="1" source="MaUqBs58RdpPaciWTK3p-2" target="MaUqBs58RdpPaciWTK3p-1">
          <mxGeometry width="50" height="50" relative="1" as="geometry">
            <mxPoint x="400" y="430" as="sourcePoint" />
            <mxPoint x="500" y="430" as="targetPoint" />
            <Array as="points">
              <mxPoint x="460" y="200" />
              <mxPoint x="460" y="200" />
            </Array>
          </mxGeometry>
        </mxCell>
        <mxCell id="MaUqBs58RdpPaciWTK3p-5" value="" style="endArrow=none;dashed=1;html=1;rounded=0;edgeStyle=orthogonalEdgeStyle;entryX=0;entryY=0.5;entryDx=0;entryDy=0;exitX=0;exitY=0.5;exitDx=0;exitDy=0;exitPerimeter=0;" edge="1" parent="1" source="MaUqBs58RdpPaciWTK3p-9" target="MaUqBs58RdpPaciWTK3p-2">
          <mxGeometry width="50" height="50" relative="1" as="geometry">
            <mxPoint x="190" y="220" as="sourcePoint" />
            <mxPoint x="240" y="170" as="targetPoint" />
          </mxGeometry>
        </mxCell>
        <mxCell id="MaUqBs58RdpPaciWTK3p-6" value="klient" style="whiteSpace=wrap;html=1;aspect=fixed;" vertex="1" parent="1">
          <mxGeometry x="60" y="280" width="80" height="80" as="geometry" />
        </mxCell>
        <mxCell id="MaUqBs58RdpPaciWTK3p-7" value="&lt;div&gt;nowy węzeł&lt;/div&gt;" style="whiteSpace=wrap;html=1;aspect=fixed;" vertex="1" parent="1">
          <mxGeometry x="190" y="280" width="80" height="80" as="geometry" />
        </mxCell>
        <mxCell id="MaUqBs58RdpPaciWTK3p-9" value="" style="strokeWidth=2;html=1;shape=mxgraph.flowchart.annotation_2;align=left;labelPosition=right;pointerEvents=1;rotation=90;" vertex="1" parent="1">
          <mxGeometry x="130" y="210" width="60" height="90" as="geometry" />
        </mxCell>
      </root>
    </mxGraphModel>
  </diagram>
</mxfile>
